<?xml version="1.0" standalone="no"?>
<!DOCTYPE svg PUBLIC "-//W3C//DTD SVG 20010904//EN"
 "http://www.w3.org/TR/2001/REC-SVG-20010904/DTD/svg10.dtd">
<svg version="1.0" xmlns="http://www.w3.org/2000/svg"
 width="480.000000pt" height="480.000000pt" viewBox="0 0 480.000000 480.000000"
 preserveAspectRatio="xMidYMid meet">
<metadata>
Created by potrace 1.11, written by Peter Selinger 2001-2013
</metadata>
<g transform="translate(0.000000,480.000000) scale(0.100000,-0.100000)"
fill="#000000" stroke="none">
<path d="M234 4763 c1 -18 -1 -33 -6 -33 -8 0 -4 -98 5 -107 4 -3 2 -15 -4
-27 -9 -18 -8 -19 3 -6 7 8 20 15 28 15 8 0 15 8 16 18 1 12 1 13 -3 2 -2 -8
-8 -15 -13 -15 -5 0 -7 8 -4 18 5 15 4 15 -6 2 -10 -13 -11 -13 -7 0 2 8 9 15
14 15 6 0 15 3 19 8 4 4 1 7 -7 7 -9 0 -15 11 -15 30 -1 18 2 27 9 23 5 -3 7
-1 3 5 -3 6 -2 13 3 16 5 4 13 -3 16 -15 6 -17 9 -19 16 -8 5 8 9 19 9 24 0 6
-4 4 -9 -3 -6 -11 -10 -10 -15 4 -3 9 -4 19 -1 22 3 3 5 0 5 -7 0 -7 5 -9 13
-4 19 12 34 12 35 -1 0 -6 3 -25 5 -41 4 -27 2 -31 -18 -31 -13 0 -21 4 -19 8
3 4 0 8 -5 8 -12 0 -13 -1 -15 -54 0 -25 6 -48 17 -62 9 -12 19 -35 21 -51 2
-15 1 -20 -1 -11 -2 9 -10 21 -16 27 -9 7 -13 4 -15 -12 -4 -38 -8 -56 -14
-62 -3 -3 -27 -1 -54 5 -30 7 -83 9 -137 5 l-87 -7 0 -88 0 -89 57 6 c32 3 66
10 75 14 9 5 27 5 40 0 13 -4 29 -6 36 -4 6 3 12 -3 12 -12 0 -9 4 -13 10 -10
17 10 11 -4 -10 -25 -25 -25 -25 -40 -1 -40 11 0 22 -4 25 -9 3 -4 -6 -7 -19
-5 -26 2 -33 -14 -15 -32 7 -7 -6 -11 -42 -13 -29 -1 -58 -7 -65 -13 -7 -6
-13 -7 -13 -2 0 4 -5 3 -11 -3 -20 -20 -19 -105 3 -150 16 -33 25 -41 42 -37
11 2 28 13 37 25 14 18 17 19 22 5 4 -9 13 -13 22 -10 10 4 15 0 15 -13 0 -14
-12 -22 -45 -31 -24 -6 -51 -9 -59 -6 -11 4 -14 -3 -13 -31 1 -33 2 -34 12
-14 11 19 13 19 18 5 5 -11 3 -15 -5 -10 -8 5 -9 -2 -4 -22 12 -51 16 -111 6
-89 -7 16 -9 13 -9 -17 -1 -20 -4 -39 -9 -42 -4 -2 -6 14 -4 36 3 24 0 38 -5
35 -5 -3 -8 -19 -5 -35 2 -16 0 -32 -5 -35 -4 -3 -8 14 -8 38 0 36 3 42 18 39
11 -2 15 1 11 8 -5 7 -2 8 6 3 8 -5 11 -4 6 3 -4 6 -13 9 -21 5 -16 -5 -54 33
-55 55 0 6 -11 12 -25 12 -33 0 -33 -27 0 -40 16 -6 24 -16 22 -27 -4 -29 -17
-43 -32 -36 -12 4 -15 -4 -14 -41 1 -25 6 -46 11 -46 5 0 6 -6 2 -12 -5 -9 -2
-9 9 1 9 7 17 10 17 6 0 -4 6 -2 13 4 33 27 111 15 87 -14 -13 -16 -3 -24 34
-27 17 -2 31 -12 42 -33 12 -23 14 -25 11 -7 -4 18 -3 21 7 13 7 -6 16 -8 19
-4 4 3 6 -16 6 -43 -2 -47 -2 -48 -9 -14 l-7 35 -2 -35 c-1 -22 -4 -30 -10
-22 -5 8 -8 1 -9 -20 -1 -18 3 -40 8 -48 7 -11 8 -6 4 16 -5 28 -4 31 17 30
24 -1 24 -4 16 124 -1 17 4 26 16 28 16 3 18 0 12 -20 -4 -16 -3 -19 3 -9 6 8
15 10 23 5 8 -5 23 -7 35 -6 11 2 27 -4 34 -14 16 -18 23 -47 10 -39 -5 3 -9
-3 -9 -12 -1 -60 -15 -98 -32 -88 -5 4 -9 -3 -9 -13 0 -15 6 -19 28 -17 26 2
29 -1 29 -31 0 -19 -4 -34 -9 -34 -4 0 -8 4 -8 9 0 5 -13 7 -30 6 -24 -2 -32
3 -45 28 -17 35 -20 49 -4 27 8 -12 10 -9 6 12 -2 16 2 33 9 39 19 16 7 35
-22 35 -14 0 -23 -5 -20 -11 2 -7 0 -18 -4 -25 -5 -8 -3 -25 4 -39 24 -51 11
-74 -57 -100 -34 -14 -84 -28 -112 -32 -27 -5 -65 -11 -83 -15 l-32 -6 0 -110
0 -110 32 7 c18 4 40 13 48 20 8 8 29 15 45 17 17 2 45 12 63 21 30 17 32 17
33 0 2 -31 -2 -48 -18 -65 -13 -14 -19 -15 -30 -6 -12 10 -14 9 -12 -7 2 -11
0 -25 -4 -32 -5 -8 -1 -11 12 -8 14 2 18 -1 14 -11 -7 -18 -12 -18 -35 3 -17
15 -18 15 -18 -13 0 -16 4 -36 10 -44 7 -12 12 -11 32 5 33 29 38 38 32 60 -5
19 -4 19 9 2 9 -10 13 -33 11 -55 -3 -31 -2 -33 5 -12 l9 25 2 -25 2 -25 8 25
c8 25 8 25 9 2 1 -13 5 -20 11 -17 6 3 10 -1 10 -9 0 -11 -9 -16 -28 -16 -37
0 -66 -31 -60 -65 3 -14 2 -28 -3 -31 -14 -8 -30 -82 -23 -108 4 -18 16 -27
45 -34 21 -5 41 -6 44 -2 3 4 14 10 25 13 15 4 19 2 12 -6 -6 -7 -8 -29 -6
-49 1 -21 0 -37 -4 -37 -4 1 -9 0 -12 -1 -5 -2 -63 -10 -87 -12 -20 -2 -15
-18 5 -19 9 -1 20 -1 25 0 4 0 7 -4 7 -10 0 -5 4 -8 9 -4 5 3 12 1 16 -4 3 -5
14 -8 25 -6 17 3 18 1 10 -15 -7 -13 -7 -21 0 -25 5 -3 10 -12 10 -18 0 -7 -4
-6 -11 3 -9 12 -10 11 -6 -6 6 -29 -8 -49 -34 -49 -12 0 -24 -7 -26 -15 -4
-13 -3 -13 6 0 6 8 11 10 11 4 0 -6 -7 -17 -15 -24 -8 -7 -15 -18 -15 -24 0
-6 5 -4 10 4 7 11 10 -5 9 -53 -1 -37 -6 -70 -11 -73 -4 -3 -6 -9 -4 -13 10
-15 16 -72 8 -67 -5 3 -9 -1 -9 -9 0 -8 4 -12 8 -9 14 8 15 -31 1 -56 -13 -23
-13 -24 2 -6 9 11 16 14 16 8 0 -19 -4 -27 -12 -24 -5 1 -8 -4 -8 -11 0 -16
29 -19 31 -3 1 6 4 -2 8 -19 3 -16 11 -30 18 -30 20 0 26 -14 13 -30 -10 -11
-10 -18 -1 -29 9 -11 9 -16 0 -22 -8 -5 -9 -3 -4 6 5 9 4 11 -4 6 -6 -4 -9
-12 -5 -17 3 -5 10 -7 15 -4 5 4 9 2 9 -3 0 -5 7 -9 15 -9 8 0 15 5 15 11 0 6
5 4 10 -4 9 -13 10 -13 10 0 0 13 1 13 10 0 8 -12 10 -12 10 5 0 17 2 17 10 5
8 -12 10 -12 11 5 0 16 2 17 7 5 8 -17 20 -19 39 -7 6 4 14 3 18 -3 6 -10 -75
-35 -107 -33 -10 0 -34 1 -53 2 -29 1 -35 5 -35 24 0 19 -19 64 -20 46 0 -4
-12 4 -27 18 -22 19 -41 26 -85 28 -63 4 -82 -8 -76 -47 2 -19 9 -23 39 -23
20 0 43 -6 52 -14 10 -7 17 -10 17 -6 0 4 9 -4 21 -19 11 -14 31 -26 43 -26
12 0 25 -3 28 -6 9 -8 -3 -44 -13 -39 -4 3 -6 13 -3 23 5 16 5 16 -6 -1 -12
-19 -30 -23 -30 -6 0 5 5 7 10 4 6 -3 10 -1 10 5 0 7 -7 9 -16 6 -10 -4 -13
-2 -8 6 5 7 3 8 -6 3 -8 -5 -11 -4 -6 3 3 6 2 13 -2 16 -14 8 -8 -72 6 -86 11
-11 12 -10 7 3 -7 18 30 34 40 18 3 -4 12 -6 20 -2 10 3 15 -1 16 -13 1 -33
10 -78 16 -84 3 -3 3 7 1 23 -6 31 7 47 15 18 2 -10 -1 -29 -9 -42 l-12 -24
-12 30 c-7 17 -15 41 -19 55 -4 14 -16 26 -27 28 -16 2 -19 -3 -19 -33 0 -19
5 -35 11 -35 7 0 14 -8 17 -19 3 -12 17 -21 41 -25 45 -9 46 -27 4 -45 -21 -8
-28 -15 -19 -18 7 -3 17 1 22 8 6 9 9 10 9 2 0 -6 -5 -15 -11 -19 -8 -4 -7 -9
2 -15 24 -15 30 -10 24 19 -5 25 -5 24 9 -6 16 -34 47 -54 54 -34 2 7 12 12
23 12 10 0 19 5 19 10 0 13 47 13 55 0 9 -15 45 -12 45 3 0 7 16 21 35 30 33
16 63 14 76 -6 7 -10 49 0 49 13 0 4 -9 10 -20 13 -27 7 -25 21 4 37 26 14 42
40 25 40 -6 0 -8 4 -5 8 4 7 -12 51 -36 96 -7 13 -6 16 3 11 7 -5 10 -4 6 2
-14 23 -30 69 -28 81 2 12 -13 11 -71 -4 -11 -4 -18 4 -23 24 -3 16 -5 33 -4
38 5 18 -13 64 -23 58 -5 -3 -4 3 3 14 11 18 10 24 -4 40 -13 14 -14 21 -5 30
7 7 17 12 23 12 15 0 17 70 4 103 -9 22 -9 31 0 40 10 9 11 8 6 -8 -6 -18 -5
-18 5 -2 13 20 4 61 -11 51 -6 -3 -5 4 3 15 8 14 9 24 3 29 -5 4 -11 18 -13
32 -2 17 0 21 6 12 6 -10 11 -1 15 28 3 24 11 48 18 54 9 8 10 8 4 -3 -6 -10
-4 -12 4 -7 9 6 9 11 -1 24 -7 9 -8 13 -2 9 9 -5 44 61 46 88 0 6 9 27 20 48
11 22 17 45 14 53 -3 8 -3 14 0 14 2 0 9 -10 14 -22 7 -19 9 -19 9 -5 1 10 5
15 11 12 5 -3 7 0 4 9 -3 8 3 23 13 34 10 10 19 25 21 33 1 8 -4 6 -13 -5 -8
-11 -15 -15 -15 -9 0 7 5 15 11 18 6 4 8 14 5 22 -3 8 -2 11 4 8 12 -7 29 25
23 45 -4 13 -3 13 6 0 7 -11 6 -22 -6 -39 l-16 -25 24 20 c62 50 68 58 63 81
-4 14 -2 23 6 23 6 0 8 5 5 10 -4 6 -3 10 2 9 23 -4 33 4 41 33 4 18 15 32 25
34 10 1 14 -2 11 -8 -4 -7 -2 -8 4 -4 7 4 12 15 13 24 0 14 2 13 9 -3 5 -11
11 -28 14 -38 5 -16 12 -12 46 25 26 29 37 49 34 61 -4 13 5 29 29 50 19 18
35 36 35 42 1 5 20 11 43 12 42 2 92 30 157 89 32 29 33 32 16 42 -19 11 -19
11 0 12 10 0 26 8 35 18 9 9 29 18 45 20 16 2 53 23 82 47 30 24 59 45 66 48
10 3 10 9 1 25 -11 19 -8 25 35 61 26 23 49 36 50 31 7 -19 22 -10 19 13 -1
17 3 21 17 19 11 -2 16 2 14 9 -4 12 36 59 50 59 13 0 120 135 145 183 13 24
32 75 41 113 9 38 21 82 26 97 5 17 5 38 0 52 -8 20 -5 28 15 44 24 18 33 59
18 75 -12 12 -34 134 -38 202 -1 34 -7 69 -12 79 -15 26 1 90 31 130 59 78
165 118 264 103 60 -10 124 -35 157 -63 11 -9 14 -14 8 -10 -7 3 -13 1 -13 -5
0 -6 8 -9 18 -6 13 4 29 -7 56 -38 26 -31 43 -42 56 -39 11 3 30 -5 47 -21 15
-14 31 -26 34 -26 3 0 17 -9 30 -20 60 -51 79 -73 79 -91 0 -10 6 -19 14 -19
8 0 32 -17 53 -37 21 -20 44 -36 50 -35 18 4 63 -22 101 -57 17 -16 32 -28 32
-25 0 2 8 -4 18 -13 10 -10 56 -53 103 -95 142 -130 254 -239 254 -247 0 -13
67 -84 98 -104 15 -10 26 -24 25 -32 -3 -16 164 -190 202 -210 27 -14 130
-121 130 -135 0 -5 3 -10 8 -12 13 -6 118 -142 164 -213 90 -140 102 -161 139
-235 54 -110 71 -151 84 -200 1 -3 5 -12 8 -20 35 -81 47 -153 26 -165 -5 -4
-8 -19 -5 -33 3 -15 8 -58 11 -97 4 -41 12 -73 21 -80 11 -8 13 -31 10 -105
-5 -100 -12 -162 -23 -195 -9 -25 -10 -31 -13 -52 -1 -11 -3 -13 -7 -5 -2 6
-9 12 -13 12 -14 0 -32 -79 -27 -109 6 -27 -43 -137 -106 -237 -43 -69 -57
-86 -91 -112 -26 -20 -27 -22 -8 -22 11 0 24 -5 27 -11 5 -7 15 -5 31 5 29 20
31 20 31 1 0 -8 -5 -15 -11 -15 -6 0 -3 -5 7 -11 9 -5 17 -15 17 -20 0 -6 -4
-8 -9 -4 -5 3 -12 1 -16 -5 -3 -5 -1 -10 6 -10 7 0 10 -3 6 -6 -3 -4 -14 -4
-23 0 -16 6 -16 8 2 22 19 14 19 14 -1 12 -11 -2 -26 -10 -32 -18 -12 -13 -15
-13 -27 3 -10 12 -16 15 -21 7 -5 -8 -12 -6 -25 5 -17 15 -18 13 -24 -30 -4
-25 -5 -54 -1 -64 3 -11 1 -22 -5 -26 -5 -3 -10 -14 -10 -24 0 -14 -7 -18 -25
-16 -14 2 -24 0 -22 -3 2 -4 -4 -15 -15 -24 -10 -10 -18 -13 -18 -8 0 6 -10 2
-22 -10 -12 -11 -26 -20 -30 -20 -5 0 -7 -4 -4 -9 7 -11 -44 -46 -61 -43 -7 2
-13 -4 -13 -11 0 -8 -7 -18 -16 -21 -8 -3 -12 -10 -9 -16 3 -6 -1 -7 -9 -4 -9
3 -16 1 -16 -5 0 -6 -7 -11 -16 -11 -8 0 -13 -4 -10 -9 6 -9 -57 -52 -80 -55
-14 -2 -44 -32 -39 -38 9 -9 -51 -54 -64 -50 -10 3 -12 -1 -7 -13 4 -12 2 -16
-8 -12 -22 9 -28 -4 -9 -18 15 -11 14 -12 -10 -10 -15 2 -27 -1 -27 -6 0 -5
-6 -9 -14 -9 -8 0 -17 -7 -20 -16 -4 -9 -13 -14 -21 -10 -8 3 -14 2 -14 -2 4
-25 -2 -34 -14 -23 -21 17 -29 0 -12 -26 9 -13 11 -23 5 -23 -5 0 -10 -10 -10
-22 -1 -23 -1 -23 -15 2 l-14 25 -7 -32 c-3 -18 -10 -30 -15 -27 -5 3 -9 -3
-9 -13 0 -11 -8 -19 -17 -20 -40 -3 -58 -11 -57 -26 1 -9 -3 -15 -10 -14 -6 1
-10 -4 -9 -10 2 -7 -5 -13 -16 -13 -12 0 -20 -9 -24 -28 -3 -15 -17 -40 -31
-55 -14 -15 -22 -27 -18 -27 4 0 -1 -7 -11 -14 -11 -9 -19 -30 -21 -55 -2 -22
-8 -47 -15 -55 -9 -10 -9 -16 -1 -21 8 -5 7 -11 -2 -22 -7 -9 -12 -24 -10 -35
2 -10 -2 -18 -7 -18 -6 0 -11 -5 -11 -11 0 -7 -8 -18 -17 -26 -16 -12 -15 -13
15 -9 31 4 43 -6 21 -19 -6 -4 -8 -14 -5 -22 4 -11 2 -13 -9 -10 -17 7 -30 -9
-14 -18 5 -4 8 -13 5 -21 -3 -8 0 -11 8 -8 8 3 15 -4 18 -20 5 -26 -16 -38
-24 -14 -2 6 -10 -3 -17 -20 -8 -18 -20 -32 -27 -32 -24 0 -16 -30 9 -31 16
-1 18 -2 4 -6 -20 -5 -22 -19 -4 -27 6 -4 2 -4 -10 -2 -19 3 -23 0 -23 -21 0
-13 -4 -22 -8 -19 -4 2 -8 -4 -8 -15 0 -18 20 -19 794 -19 592 0 798 3 809 11
10 9 17 9 25 1 15 -15 58 -16 58 -2 0 6 -7 13 -15 16 -8 4 -15 16 -15 28 0 13
-6 23 -14 23 -11 0 -11 -4 0 -26 18 -35 18 -46 -2 -27 -8 9 -13 20 -10 25 7
10 -18 34 -26 25 -3 -2 -5 7 -5 21 0 30 5 31 23 8 12 -17 13 -16 9 4 -4 24 19
51 30 34 3 -6 16 -16 27 -22 18 -10 20 -9 15 5 -8 21 8 29 25 12 12 -12 16 -9
27 14 11 26 16 28 49 23 20 -3 41 -11 45 -17 6 -8 10 -8 13 0 3 7 13 10 23 7
10 -3 22 0 26 7 5 8 11 6 21 -7 9 -13 13 -14 14 -4 0 8 7 11 20 8 13 -3 20 0
20 9 0 8 4 14 9 14 5 0 9 49 10 109 2 92 -1 114 -18 145 -13 22 -17 38 -10 42
6 3 8 12 5 20 -3 7 -1 16 4 19 5 3 7 12 4 19 -3 8 -1 17 5 21 14 8 14 234 1
255 -8 12 -10 10 -10 -8 0 -14 -4 -21 -11 -17 -6 4 -8 9 -6 12 3 2 1 18 -3 35
-8 26 -7 28 6 17 21 -17 38 2 30 34 -4 19 -12 24 -33 22 -16 -1 -27 -7 -25
-14 1 -7 -2 -10 -8 -6 -6 4 -9 -3 -7 -17 1 -17 -4 -24 -20 -26 -17 -3 -20 1
-16 17 3 11 11 25 18 31 8 6 11 18 8 27 -5 12 -7 12 -14 1 -7 -11 -11 -10 -18
2 -9 12 -11 12 -16 -2 -4 -9 -12 -15 -20 -12 -7 3 -15 -5 -19 -20 -6 -24 -7
-24 -38 -8 -18 8 -27 17 -20 20 7 2 17 13 23 25 10 21 10 21 -5 3 -9 -11 -16
-16 -16 -10 0 5 -4 2 -9 -5 -6 -9 -6 -22 0 -32 6 -12 5 -22 -5 -32 -11 -11
-12 -17 -3 -27 7 -7 0 -5 -15 4 -16 11 -25 23 -21 32 3 8 -1 14 -10 14 -15 0
-30 37 -21 52 3 4 13 4 22 -1 12 -7 22 -3 40 16 l24 26 -20 26 c-11 15 -23 41
-27 59 -3 18 -11 30 -16 26 -5 -3 -9 -1 -9 5 0 5 -3 17 -7 27 -4 12 -3 15 5
10 16 -10 15 0 -4 29 -9 14 -15 25 -13 26 31 6 40 4 56 -15 23 -27 20 -64 -5
-44 -12 10 -14 10 -8 1 4 -7 17 -18 28 -24 17 -9 20 -9 16 3 -3 8 1 23 9 33
14 19 15 18 9 -15 -3 -19 -1 -42 4 -50 5 -8 10 -12 11 -7 1 4 2 10 3 15 1 4 5
12 9 19 4 6 3 14 -3 18 -5 3 -10 11 -10 18 0 6 6 3 13 -8 8 -10 19 -15 26 -11
6 4 14 1 17 -8 3 -8 11 -13 19 -10 7 3 15 -2 19 -11 6 -17 26 -12 26 6 0 6 -4
8 -9 4 -14 -8 -40 50 -30 66 6 10 11 6 18 -14 11 -29 31 -37 31 -12 0 22 -4
30 -14 27 -4 -1 -19 9 -32 24 -19 20 -22 29 -14 39 13 16 40 9 40 -10 0 -7 8
-23 19 -36 10 -13 16 -30 14 -36 -7 -20 27 -28 44 -10 20 20 10 107 -12 107
-9 0 -12 6 -8 17 4 9 2 14 -3 10 -5 -3 -10 6 -11 21 -2 26 -1 26 7 5 12 -29
27 -29 35 -3 6 20 -10 52 -23 47 -13 -4 -49 28 -49 44 0 20 31 18 33 -2 1 -8
2 -21 3 -29 1 -12 3 -12 11 2 10 17 9 44 -1 63 -4 6 -5 19 -4 30 0 11 -9 30
-22 43 -13 12 -23 19 -23 14 0 -4 5 -13 12 -20 9 -9 8 -12 -5 -12 -21 0 -22
-9 -2 -24 10 -7 12 -16 5 -26 -7 -12 -13 -9 -34 13 -30 33 -31 40 -10 72 9 14
14 34 11 46 -4 16 -3 18 9 8 8 -6 14 -9 14 -6 0 4 17 -12 38 -34 l37 -40 -1
34 c-1 19 -4 39 -8 45 -4 7 -2 12 3 12 8 0 11 485 11 1615 l0 1615 -2133 0
c-1693 0 -2136 -3 -2146 -12 -11 -11 -13 -10 -7 0 6 9 -20 12 -118 11 -92 -1
-124 -5 -117 -13 6 -7 4 -18 -5 -30 -10 -14 -14 -16 -14 -5 0 12 -2 12 -9 0
-7 -11 -11 -8 -14 15 -4 27 -4 26 -3 -3z m207 -2 c6 10 9 6 9 -13 0 -20 -4
-26 -15 -22 -8 4 -15 16 -14 28 0 12 3 16 6 7 5 -11 7 -11 14 0z m131 -43 c-6
-6 -7 0 -4 19 5 21 7 23 10 9 2 -10 0 -22 -6 -28z m-320 10 c-5 -7 -9 -28 -7
-46 1 -18 0 -34 -4 -36 -10 -6 -8 66 2 82 5 6 11 12 14 12 3 0 1 -6 -5 -12z
m163 -28 c4 -6 1 -9 -6 -8 -14 3 -19 -20 -10 -37 3 -5 6 -32 7 -60 0 -27 -1
-44 -4 -36 -4 11 -6 11 -14 0 -8 -11 -9 -11 -5 1 2 8 0 23 -5 34 -14 26 -16
75 -4 73 6 -1 10 3 11 8 0 11 14 35 20 35 2 0 7 -5 10 -10z m52 -45 c4 -4 2
-5 -4 -1 -7 4 -13 3 -13 -1 0 -5 6 -15 13 -22 10 -10 9 -11 -5 -6 -10 4 -18
15 -19 24 0 12 -2 12 -9 -4 -6 -15 -9 -16 -9 -4 -1 9 2 18 5 21 7 8 32 4 41
-7z m101 -5 c-7 -10 -14 -17 -17 -15 -4 4 18 35 25 35 2 0 -1 -9 -8 -20z
m-222 -26 c1 -9 0 -13 -4 -10 -3 4 -7 14 -8 22 -1 9 0 13 4 10 3 -4 7 -14 8
-22z m6 -48 c7 4 8 2 4 -4 -11 -18 -26 -14 -25 6 0 10 3 12 6 4 2 -6 10 -9 15
-6z m-45 -78 c-3 -7 -5 -2 -5 12 0 14 2 19 5 13 2 -7 2 -19 0 -25z m124 -461
c-10 -9 -11 -8 -5 6 3 10 9 15 12 12 3 -3 0 -11 -7 -18z m-21 -17 c0 -5 -4
-10 -8 -10 -5 0 -7 -14 -6 -31 1 -17 0 -28 -4 -25 -3 3 -11 1 -19 -5 -7 -6
-13 -8 -13 -3 0 5 -5 2 -10 -6 -8 -12 -10 -11 -7 5 1 11 6 26 10 33 12 17 30
15 23 -4 -3 -9 -2 -12 5 -9 6 4 8 13 5 21 -3 8 -3 21 0 29 7 17 24 20 24 5z
m-71 -33 c0 -9 -2 -8 -6 1 -2 6 -10 9 -15 6 -7 -4 -8 -2 -4 5 9 13 26 5 25
-12z m97 -11 c1 -7 -4 -13 -12 -13 -9 0 -11 4 -4 12 5 7 8 15 5 18 -3 4 -2 5
2 2 4 -3 8 -11 9 -19z m-152 -20 c3 -16 2 -25 -1 -22 -4 4 -9 19 -11 34 -4 35
5 25 12 -12z m-75 -102 c5 -5 12 -18 15 -30 5 -15 2 -21 -11 -21 -23 0 -38 17
-39 43 -1 22 18 27 35 8z m-39 -84 c0 12 2 12 9 2 4 -8 12 -13 17 -13 5 1 9
-3 8 -9 -3 -33 -5 -35 -14 -20 -9 13 -10 13 -10 0 -1 -9 -6 -5 -15 10 -16 28
-20 54 -5 30 9 -13 10 -13 10 0z m-102 -9 c-1 -3 2 -14 7 -24 7 -17 -12 -53
-23 -42 -3 3 -11 0 -18 -6 -8 -7 -14 -6 -20 2 -4 8 -3 9 4 5 7 -4 12 -1 12 9
0 9 -4 14 -9 11 -5 -3 -8 5 -7 18 1 24 14 25 46 2 10 -7 9 -3 -3 10 -14 17
-14 21 -3 21 8 0 14 -3 14 -6z m69 -43 c-3 -8 -6 -5 -6 6 -1 11 2 17 5 13 3
-3 4 -12 1 -19z m101 -40 c3 2 8 -1 10 -6 1 -5 -6 -12 -18 -15 -11 -3 -20 0
-21 6 0 7 -2 21 -4 32 l-4 20 15 -20 c8 -11 18 -19 22 -17z m279 -250 c-3 -8
-6 -5 -6 6 -1 11 2 17 5 13 3 -3 4 -12 1 -19z m-210 -20 c-3 -8 -6 -5 -6 6 -1
11 2 17 5 13 3 -3 4 -12 1 -19z m134 -31 c-10 -9 -11 -8 -5 6 3 10 9 15 12 12
3 -3 0 -11 -7 -18z m-143 -212 c3 -3 1 -5 -5 -5 -6 0 -10 -11 -10 -25 0 -13 3
-23 7 -20 4 2 5 -8 2 -23 l-6 -27 -7 25 c-6 21 -7 22 -9 5 -1 -16 -4 -14 -12
9 -8 21 -13 25 -19 15 -6 -10 -8 -6 -7 11 1 14 6 30 10 37 9 11 44 10 56 -2z
m140 -70 c-3 -3 -9 2 -12 12 -6 14 -5 15 5 6 7 -7 10 -15 7 -18z m-150 -100
c-3 -28 -13 -33 -22 -10 -3 8 -10 14 -15 13 -5 -2 -9 2 -10 7 -1 6 3 10 8 10
5 0 13 3 17 7 12 13 24 -2 22 -27z m63 -21 c-5 -16 -10 -21 -10 -12 -1 18 10
51 15 45 2 -1 -1 -16 -5 -33z m39 1 c0 -5 -5 -3 -10 5 -5 8 -10 20 -10 25 0 6
5 3 10 -5 5 -8 10 -19 10 -25z m361 -68 c-10 -9 -11 -8 -5 6 3 10 9 15 12 12
3 -3 0 -11 -7 -18z m-357 -193 c3 -8 2 -12 -4 -9 -6 3 -10 10 -10 16 0 14 7
11 14 -7z m211 -23 c-21 -43 -29 -39 -8 4 9 19 18 33 21 31 2 -2 -4 -18 -13
-35z m-184 6 c-10 -9 -11 -8 -5 6 3 10 9 15 12 12 3 -3 0 -11 -7 -18z m26 1
c-3 -8 -6 -5 -6 6 -1 11 2 17 5 13 3 -3 4 -12 1 -19z m-74 -13 c-3 -9 -8 -14
-10 -11 -3 3 -2 9 2 15 9 16 15 13 8 -4z m-25 -7 c-5 -14 -36 -20 -43 -8 -3 5
4 7 15 5 11 -2 20 0 20 6 0 5 3 9 6 9 3 0 4 -5 2 -12z m56 4 c3 -5 -1 -9 -9
-9 -8 0 -12 4 -9 9 3 4 7 8 9 8 2 0 6 -4 9 -8z m-82 -37 c3 0 8 -2 10 -5 2 -3
1 -4 -1 -3 -2 2 -11 -3 -19 -10 -13 -9 -14 -9 -8 1 4 6 2 12 -3 12 -6 0 -11 5
-11 11 0 6 5 7 13 2 6 -4 15 -8 19 -8z m249 -47 c-5 -13 -17 -25 -26 -25 -15
0 -16 2 -3 11 8 6 19 22 23 36 5 14 10 20 12 14 2 -6 -1 -22 -6 -36z m-224
-73 c0 -8 -4 -12 -9 -9 -5 3 -6 10 -3 15 9 13 12 11 12 -6z m-61 -114 c-2 -26
-9 -58 -16 -70 -6 -13 -9 -25 -6 -29 3 -3 6 0 6 5 0 18 33 8 42 -13 5 -12 6
-7 2 15 -4 22 -3 31 4 27 6 -3 13 0 16 6 3 7 4 -2 1 -20 -4 -37 -9 -45 -30
-48 -8 -1 -12 4 -9 14 4 11 1 10 -7 -3 -7 -11 -17 -23 -22 -26 -12 -8 1 -31
14 -24 23 15 47 13 44 -3 -2 -9 -4 -21 -4 -25 -1 -5 -5 -6 -10 -2 -15 8 -28
-25 -26 -65 1 -19 -2 -42 -6 -50 -5 -8 -9 -10 -9 -4 0 7 -8 14 -18 16 -10 3
-19 11 -20 19 0 8 -3 36 -6 64 -3 35 -2 45 5 35 8 -11 9 -7 5 15 -5 22 -4 26
4 15 7 -11 10 -4 10 30 0 33 -3 41 -10 30 -7 -11 -10 -4 -10 28 0 31 4 42 15
42 9 0 15 9 15 23 0 19 16 47 26 47 2 0 1 -22 0 -49z m-39 7 c-3 -8 -6 -5 -6
6 -1 11 2 17 5 13 3 -3 4 -12 1 -19z m195 9 c3 10 5 -4 5 -32 0 -42 -1 -45 -7
-20 l-8 30 -2 -30 c-3 -28 -3 -28 -7 -5 -3 14 -9 30 -15 35 -7 7 -9 1 -4 -20
5 -25 4 -27 -5 -11 -8 13 -8 25 1 44 11 25 13 26 25 9 13 -18 13 -18 17 0z
m16 -142 c-3 -3 -9 2 -12 12 -6 14 -5 15 5 6 7 -7 10 -15 7 -18z m-83 -69 c0
-13 -3 -22 -7 -20 -4 3 -8 15 -9 27 -1 20 -2 20 -9 -3 l-8 -25 -1 26 c-1 14 2
29 6 33 11 10 26 -11 28 -38z m126 30 c5 3 9 -6 9 -20 0 -14 -6 -29 -14 -33
-7 -4 -16 -15 -19 -23 -4 -8 -5 5 -2 30 6 65 6 66 12 52 2 -6 9 -10 14 -6z
m-53 -28 c7 -7 11 -23 11 -37 l-1 -26 -7 27 c-7 32 -31 25 -34 -10 -1 -18 -4
-19 -13 -10 -7 7 -16 25 -19 41 -7 25 -5 27 22 27 16 0 34 -5 41 -12z m-62
-77 c2 -8 1 -8 -3 0 -4 8 -7 8 -13 -1 -5 -9 -9 -8 -13 3 -4 10 0 14 11 13 9
-2 17 -8 18 -15z m24 -63 c0 -4 -4 -8 -10 -8 -11 0 -13 -30 -4 -55 6 -14 9
-13 30 6 13 12 24 18 24 12 0 -6 -7 -14 -16 -17 -13 -5 -14 -9 -4 -22 9 -10
10 -18 3 -25 -8 -8 -11 -6 -10 7 1 10 -4 19 -11 19 -7 0 -16 6 -21 13 -5 8
-11 13 -15 13 -20 -3 -26 1 -26 18 0 34 10 47 35 47 14 0 25 -4 25 -8z m-76
-54 c3 -8 2 -12 -4 -9 -6 3 -10 10 -10 16 0 14 7 11 14 -7z m168 -29 c4 -16 5
-31 3 -34 -3 -2 -8 10 -11 28 -5 23 -10 29 -19 21 -8 -7 -12 -6 -12 4 0 25 31
10 39 -19z m-325 -147 c-3 -8 -6 -5 -6 6 -1 11 2 17 5 13 3 -3 4 -12 1 -19z
m4343 -104 c0 -22 -17 -25 -39 -6 l-22 17 31 1 c18 1 30 -4 30 -12z m84 -21
c-9 -39 -16 -44 -38 -27 -11 8 -17 15 -13 15 4 1 13 2 20 3 6 1 11 9 11 19 -1
9 5 17 12 17 11 0 13 -7 8 -27z m-540 -198 c3 -8 1 -15 -4 -15 -6 0 -10 7 -10
15 0 8 2 15 4 15 2 0 6 -7 10 -15z m78 -10 c12 -15 9 -25 -6 -25 -7 0 -16 9
-19 20 -5 20 12 24 25 5z m183 -5 c-17 -19 -35 -19 -35 0 0 5 7 7 15 4 8 -4
15 -1 15 5 0 6 5 11 12 11 6 0 3 -8 -7 -20z m-145 0 c0 -5 -5 -10 -11 -10 -5
0 -7 5 -4 10 3 6 8 10 11 10 2 0 4 -4 4 -10z m80 -9 c0 -5 -7 -11 -15 -15 -15
-5 -20 5 -8 17 9 10 23 9 23 -2z m-160 -20 c-15 -30 -30 -35 -17 -6 7 14 16
25 20 25 4 0 3 -9 -3 -19z m198 0 c10 -6 9 -11 -4 -22 -14 -11 -16 -11 -10 0
5 8 3 17 -5 22 -8 5 -9 9 -4 9 6 0 16 -4 23 -9z m-123 -11 c3 -5 1 -10 -4 -10
-6 0 -11 5 -11 10 0 6 2 10 4 10 3 0 8 -4 11 -10z m89 -41 c18 15 56 2 56 -19
0 -10 6 -20 12 -22 9 -3 8 -9 -5 -22 -9 -10 -17 -14 -17 -9 0 9 -52 9 -67 0
-14 -9 -45 2 -38 14 3 4 12 6 19 3 8 -3 17 -1 21 5 3 6 1 11 -5 11 -7 0 -9 8
-5 19 3 11 1 22 -4 26 -7 4 -7 11 2 20 10 11 13 9 15 -12 3 -18 7 -22 16 -14z
m-213 14 c3 1 1 -2 -3 -8 -5 -5 -15 -2 -26 9 -16 18 -16 18 4 8 12 -6 23 -10
25 -9z m95 -1 c-2 -4 10 -6 28 -4 35 4 60 -15 47 -36 -4 -7 -19 -14 -32 -16
-14 -1 -31 -6 -39 -11 -10 -6 -12 -4 -7 9 4 10 1 24 -8 33 -15 15 -12 33 6 33
6 0 8 -4 5 -8z m334 -20 c0 -5 -7 -9 -15 -9 -8 0 -12 4 -9 9 3 4 9 8 15 8 5 0
9 -4 9 -8z m127 -95 c29 -23 29 -29 -2 -44 -20 -9 -25 -9 -24 0 3 25 -1 38
-11 32 -5 -3 -10 2 -11 12 0 12 -2 14 -6 4 -4 -11 -7 -11 -13 -1 -5 8 -2 19 5
26 7 8 11 24 8 36 -3 14 2 10 14 -12 9 -19 28 -43 40 -53z m-485 51 c-6 -6
-15 -8 -19 -4 -4 4 -1 11 7 16 19 12 27 3 12 -12z m326 -6 c2 -7 -2 -10 -12
-6 -9 3 -16 11 -16 16 0 13 23 5 28 -10z m87 8 c-3 -5 -12 -10 -18 -10 -7 0
-6 4 3 10 19 12 23 12 15 0z m-332 -52 c-21 -23 -25 -23 -42 3 -11 19 -11 21
3 16 10 -4 16 -1 16 8 0 13 3 13 20 3 18 -11 18 -14 3 -30z m299 12 c-2 -14 0
-20 7 -16 6 4 11 2 11 -4 0 -6 9 -20 20 -32 10 -12 16 -26 13 -31 -4 -6 0 -8
10 -4 14 5 17 0 17 -26 0 -24 3 -28 10 -17 5 8 11 12 14 9 3 -2 1 -11 -4 -18
-8 -13 -16 -12 -50 7 -58 33 -60 33 -60 8 0 -14 -5 -28 -10 -31 -6 -4 -8 -10
-5 -15 3 -5 1 -11 -5 -15 -5 -3 -10 1 -10 9 0 9 -5 16 -11 16 -6 0 -8 9 -5 20
3 11 9 30 12 42 5 18 3 20 -12 13 -11 -4 -25 -8 -31 -8 -7 0 -13 -4 -13 -9 0
-5 -5 -6 -12 -2 -6 4 -8 3 -4 -4 3 -6 1 -14 -5 -17 -5 -4 -8 -14 -4 -23 3 -9
3 -13 -1 -9 -4 4 -13 2 -20 -4 -9 -8 -12 -4 -10 16 2 14 -1 28 -5 31 -14 8
-11 24 5 24 7 0 19 6 25 14 7 8 23 13 36 10 18 -3 24 1 29 21 4 14 11 23 16
20 6 -3 10 3 10 15 0 12 5 18 10 15 6 -4 8 -10 5 -15 -3 -5 0 -12 6 -16 9 -5
10 2 6 25 -5 24 -3 31 6 28 6 -2 11 -14 9 -27z m-191 -7 c13 -16 12 -17 -3 -4
-17 13 -22 21 -14 21 2 0 10 -8 17 -17z m56 -5 c-3 -8 -6 -5 -6 6 -1 11 2 17
5 13 3 -3 4 -12 1 -19z m-217 -18 c0 -5 -5 -10 -11 -10 -5 0 -7 5 -4 10 3 6 8
10 11 10 2 0 4 -4 4 -10z m490 -65 c0 -2 -3 -11 -6 -20 -5 -13 -9 -11 -20 11
-18 35 -18 37 6 24 11 -6 20 -12 20 -15z m-427 8 c-7 -2 -19 -2 -25 0 -7 3 -2
5 12 5 14 0 19 -2 13 -5z m43 -17 c0 -14 -4 -22 -8 -20 -5 3 -6 10 -3 15 4 5
1 9 -5 9 -6 0 -8 5 -5 10 11 18 21 11 21 -14z m62 -14 c8 -7 11 -16 7 -20 -4
-4 -10 -1 -12 6 -3 6 -11 12 -19 12 -8 0 -14 5 -14 10 0 13 21 9 38 -8z m117
-11 c3 -5 2 -12 -3 -15 -5 -3 -9 1 -9 9 0 17 3 19 12 6z m350 -13 c5 4 5 2 2
-5 -4 -6 -16 -9 -27 -6 -11 3 -17 9 -14 15 3 5 11 5 18 -1 7 -6 17 -7 21 -3z
m-435 -48 c3 -4 13 -6 23 -4 17 2 17 1 3 -21 -9 -14 -16 -32 -16 -41 0 -14 2
-15 17 -3 13 11 17 11 20 2 3 -7 11 -13 19 -13 20 0 35 -41 21 -58 -9 -11 -7
-13 8 -11 11 2 21 0 23 -4 6 -19 0 -24 -24 -19 -16 3 -30 -1 -35 -9 -7 -11 -9
-9 -9 7 0 12 -6 24 -13 27 -8 3 -14 -1 -14 -9 0 -7 5 -10 10 -7 6 3 7 1 3 -5
-9 -15 -38 -3 -29 12 4 7 2 7 -7 -1 -10 -9 -10 -15 3 -28 9 -9 19 -16 22 -15
3 0 4 -3 3 -7 -2 -5 -7 -7 -11 -5 -5 1 -6 -2 -2 -8 4 -7 12 -7 26 0 10 6 19 8
19 4 0 -3 11 1 24 10 26 17 42 7 32 -19 -3 -8 -1 -15 4 -15 6 0 10 -9 10 -19
0 -27 -28 -34 -42 -11 -16 26 -40 25 -56 0 -13 -22 -36 -28 -29 -7 2 6 10 11
16 10 6 -2 11 2 11 8 0 6 -7 8 -15 5 -9 -3 -17 0 -19 7 -2 6 -11 34 -20 62
-11 32 -13 51 -6 53 20 7 10 42 -15 54 -25 11 -34 28 -15 28 6 0 10 -5 10 -12
0 -22 11 0 15 31 2 17 0 33 -6 36 -5 4 -9 -2 -9 -11 0 -10 -3 -15 -6 -11 -4 3
-4 13 0 22 4 12 12 14 28 9 13 -4 25 -10 28 -14z m97 -12 c-3 -8 -6 -5 -6 6
-1 11 2 17 5 13 3 -3 4 -12 1 -19z m-7 -27 c6 -12 18 -18 30 -16 13 3 20 -2
20 -12 0 -11 -3 -13 -12 -5 -7 6 -16 11 -21 11 -13 1 -47 26 -47 33 0 15 19 8
30 -11z m-316 -107 c16 -6 11 -34 -6 -34 -6 0 -8 6 -5 14 3 8 1 17 -6 20 -17
7 -2 7 17 0z m412 -29 c-3 -41 -16 -59 -16 -22 0 25 9 57 16 57 2 0 2 -16 0
-35z m-376 -35 c0 -5 -5 -10 -11 -10 -5 0 -7 5 -4 10 3 6 8 10 11 10 2 0 4 -4
4 -10z m-840 -55 c0 -5 -5 -3 -10 5 -5 8 -10 20 -10 25 0 6 5 3 10 -5 5 -8 10
-19 10 -25z m724 -20 c-4 -8 -10 -12 -15 -9 -11 6 -2 24 11 24 5 0 7 -7 4 -15z
m634 4 c-2 -6 -7 -10 -11 -10 -4 1 -14 1 -22 1 -8 0 -15 5 -15 10 0 6 12 10
26 10 14 0 24 -5 22 -11z m-230 -43 c10 -23 9 -24 -28 -28 -30 -3 -44 1 -56
16 -15 17 -15 19 0 13 9 -4 16 -2 16 3 0 8 20 16 46 19 6 0 16 -10 22 -23z
m192 4 c0 -5 -7 -10 -16 -10 -8 0 -12 5 -9 10 3 6 10 10 16 10 5 0 9 -4 9 -10z
m40 -36 c0 -8 5 -14 10 -14 6 0 10 -6 10 -14 0 -8 6 -21 14 -28 7 -8 16 -23
20 -34 5 -16 -1 -22 -29 -33 -27 -9 -39 -10 -50 -1 -10 8 -14 8 -18 -2 -2 -7
-3 -5 -2 4 2 10 -1 21 -6 24 -13 7 -11 24 2 24 6 0 13 -9 16 -20 5 -20 23 -28
23 -10 0 6 7 10 15 10 8 0 15 5 15 10 0 6 0 13 0 18 0 4 -9 8 -20 8 -31 2 -31
3 -20 24 8 15 8 20 -1 18 -6 -2 -14 3 -17 11 -3 8 0 11 7 7 6 -4 11 0 11 9 0
9 5 13 10 10 6 -3 10 -13 10 -21z m-160 6 c0 -5 -2 -10 -4 -10 -3 0 -8 5 -11
10 -3 6 -1 10 4 10 6 0 11 -4 11 -10z m65 1 c3 -5 2 -12 -3 -15 -5 -3 -9 1 -9
9 0 17 3 19 12 6z m-225 -17 c0 -8 -4 -12 -10 -9 -5 3 -10 10 -10 16 0 5 5 9
10 9 6 0 10 -7 10 -16z m274 -2 c6 -10 -22 -47 -30 -40 -3 4 -3 16 1 27 6 21
20 27 29 13z m-1572 -117 c0 -5 -5 -11 -11 -13 -6 -2 -11 4 -11 13 0 9 5 15
11 13 6 -2 11 -8 11 -13z m1668 -55 c0 -5 -4 -10 -10 -10 -5 0 -10 5 -10 10 0
6 5 10 10 10 6 0 10 -4 10 -10z m-1730 -16 c0 -8 -4 -12 -10 -9 -5 3 -10 10
-10 16 0 5 5 9 10 9 6 0 10 -7 10 -16z m1740 -14 c0 -5 -8 -10 -17 -10 -15 0
-16 2 -3 10 19 12 20 12 20 0z m20 -24 c0 -3 -4 -8 -10 -11 -5 -3 -10 -1 -10
4 0 6 5 11 10 11 6 0 10 -2 10 -4z m-316 -27 c-4 -7 0 -9 14 -5 11 4 23 2 27
-5 5 -7 10 -8 14 -1 10 17 42 -13 45 -42 4 -32 -6 -33 -28 -3 -9 12 -14 16
-11 10 8 -17 -6 -16 -39 0 -14 8 -23 17 -19 21 4 4 1 4 -8 1 -23 -9 -15 -66
11 -87 12 -10 18 -18 12 -18 -6 0 -19 11 -30 25 -17 22 -21 23 -26 8 -4 -9 -1
-20 6 -25 10 -6 8 -8 -4 -8 -22 0 -22 -3 -3 -39 8 -16 12 -31 8 -34 -10 -10
-22 3 -17 17 3 8 1 17 -5 21 -6 3 -11 16 -11 27 0 12 -7 29 -16 39 -10 11 -12
19 -4 24 6 3 9 1 8 -6 -2 -7 5 -15 15 -17 12 -2 17 3 17 18 0 14 4 19 13 14 6
-4 3 2 -7 14 -11 12 -14 22 -8 22 7 0 12 7 12 16 0 8 4 13 9 9 5 -3 12 -1 16
5 3 5 8 10 11 10 3 0 2 -5 -2 -11z m-51 -63 c-3 -4 -10 -1 -15 8 -5 9 -13 14
-19 11 -11 -7 -11 -3 -2 20 5 15 8 15 24 -6 9 -13 15 -28 12 -33z m-1414 30
c10 -12 8 -13 -8 -9 -12 3 -18 9 -15 14 7 12 10 11 23 -5z m1611 -31 c-10 -12
-16 -13 -26 -4 -20 16 -18 19 12 19 22 0 25 -2 14 -15z m-70 -26 c0 -6 -4 -7
-10 -4 -5 3 -10 11 -10 16 0 6 5 7 10 4 6 -3 10 -11 10 -16z m103 3 c3 -4 -3
-17 -13 -30 -16 -19 -23 -21 -40 -12 -11 6 -20 13 -20 16 0 3 4 3 9 0 4 -3 16
3 26 14 19 21 31 25 38 12z m-83 -32 c0 -5 -2 -10 -4 -10 -3 0 -8 5 -11 10 -3
6 -1 10 4 10 6 0 11 -4 11 -10z m-154 -121 c0 -27 -19 -18 -27 14 -6 23 -5 25
10 15 9 -5 17 -19 17 -29z m-1441 11 c3 -5 -1 -10 -10 -10 -9 0 -13 5 -10 10
3 6 8 10 10 10 2 0 7 -4 10 -10z m1487 -45 c3 -14 1 -25 -3 -25 -5 0 -9 11 -9
25 0 14 2 25 4 25 2 0 6 -11 8 -25z m-41 -36 c22 -23 28 -34 20 -42 -14 -14
-14 -30 -1 -22 6 3 10 -1 10 -9 0 -9 -3 -15 -7 -15 -21 3 -32 -3 -36 -18 -3
-10 -2 4 1 31 4 35 2 47 -6 42 -12 -7 -32 23 -32 48 0 24 18 19 51 -15z
m-1391 -19 c0 -5 -7 -10 -16 -10 -8 0 -12 5 -9 10 3 6 10 10 16 10 5 0 9 -4 9
-10z m50 -34 c0 -3 -4 -8 -10 -11 -5 -3 -10 -1 -10 4 0 6 5 11 10 11 6 0 10
-2 10 -4z m230 -36 c0 -5 -2 -10 -4 -10 -3 0 -8 5 -11 10 -3 6 -1 10 4 10 6 0
11 -4 11 -10z m1000 -65 c10 -12 10 -15 -4 -15 -9 0 -16 7 -16 15 0 8 2 15 4
15 2 0 9 -7 16 -15z"/>
<path d="M387 4628 c-3 -12 -3 -28 1 -35 5 -8 8 0 9 22 1 40 -2 44 -10 13z"/>
<path d="M244 3158 c-3 -4 2 -18 10 -30 9 -12 16 -18 17 -13 0 6 2 19 3 31 2
20 -20 29 -30 12z m20 -14 c3 -8 2 -12 -4 -9 -6 3 -10 10 -10 16 0 14 7 11 14
-7z"/>
<path d="M271 3004 c0 -11 3 -14 6 -6 3 7 2 16 -1 19 -3 4 -6 -2 -5 -13z"/>
<path d="M272 2415 c0 -16 2 -22 5 -12 2 9 2 23 0 30 -3 6 -5 -1 -5 -18z"/>
<path d="M243 2224 c-7 -16 -8 -26 -1 -30 11 -7 28 13 28 33 0 23 -15 21 -27
-3z"/>
<path d="M410 2421 c0 -6 4 -13 10 -16 6 -3 7 1 4 9 -7 18 -14 21 -14 7z"/>
<path d="M485 2210 c-3 -5 -1 -10 4 -10 6 0 11 5 11 10 0 6 -2 10 -4 10 -3 0
-8 -4 -11 -10z"/>
<path d="M4266 1385 c4 -9 11 -14 16 -13 15 5 11 23 -6 26 -11 2 -14 -2 -10
-13z"/>
<path d="M4335 1119 c-10 -15 3 -25 16 -12 7 7 7 13 1 17 -6 3 -14 1 -17 -5z"/>
<path d="M315 4722 c0 -27 16 -43 23 -23 2 6 -1 11 -7 11 -6 0 -8 6 -5 14 3 8
2 16 -3 19 -5 3 -9 -7 -8 -21z"/>
<path d="M214 4522 c-8 -13 -8 -20 1 -28 9 -9 14 -4 22 17 13 33 -4 42 -23 11z"/>
<path d="M90 4510 c0 -5 5 -10 10 -10 6 0 10 5 10 10 0 6 -4 10 -10 10 -5 0
-10 -4 -10 -10z"/>
<path d="M244 4482 c4 -3 14 -7 22 -8 9 -1 13 0 10 4 -4 3 -14 7 -22 8 -9 1
-13 0 -10 -4z"/>
<path d="M10 4230 c-13 -8 -13 -10 2 -10 9 0 20 5 23 10 8 13 -5 13 -25 0z"/>
<path d="M80 4190 c0 -5 5 -10 10 -10 6 0 10 5 10 10 0 6 -4 10 -10 10 -5 0
-10 -4 -10 -10z"/>
<path d="M15 4110 c-3 -6 -3 -15 1 -22 4 -6 8 -26 8 -42 1 -17 6 -33 11 -35
12 -5 23 56 15 84 -6 22 -26 30 -35 15z"/>
<path d="M164 3965 c-4 -9 -4 -19 0 -22 3 -4 6 2 6 13 0 16 2 17 10 4 6 -9 10
-10 10 -3 0 19 -20 26 -26 8z"/>
<path d="M0 3926 c0 -8 12 -17 27 -21 15 -3 22 -9 17 -13 -6 -4 -3 -14 8 -24
14 -14 18 -15 18 -4 0 27 -20 67 -30 61 -5 -3 -10 -1 -10 4 0 6 -7 11 -15 11
-8 0 -15 -6 -15 -14z"/>
<path d="M3099 3634 c379 -387 546 -610 651 -867 59 -145 75 -234 75 -415 0
-106 -4 -155 -12 -160 -6 -4 -206 -7 -443 -7 -377 0 -433 -2 -437 -15 -17 -53
-89 -175 -130 -220 -13 -14 -23 -28 -23 -32 0 -4 -8 -15 -18 -25 -40 -40 -114
-133 -105 -133 5 0 9 -32 8 -71 -1 -38 3 -72 7 -75 4 -3 8 -10 8 -17 0 -6 -8
-4 -17 6 -14 14 -17 31 -15 83 l4 66 -31 -30 c-17 -16 -31 -32 -31 -36 0 -4
-14 -19 -31 -33 -26 -22 -28 -28 -15 -35 9 -5 16 -14 16 -20 0 -9 -3 -9 -12 0
-7 7 -15 12 -19 12 -8 0 -105 -128 -138 -182 l-23 -38 421 0 c370 0 420 -2
415 -15 -4 -8 -13 -15 -20 -15 -8 0 -17 -7 -20 -15 -4 -8 -12 -15 -19 -15 -7
0 -27 -13 -44 -29 -16 -15 -32 -27 -34 -25 -2 2 -20 -11 -40 -30 -20 -19 -37
-32 -37 -30 0 10 -172 -137 -240 -206 -142 -143 -219 -263 -276 -430 l-32 -95
28 -35 c35 -45 70 -76 71 -64 10 114 106 360 173 445 12 15 29 38 39 52 20 27
189 195 242 241 34 29 261 203 295 226 12 8 30 22 40 30 10 8 28 22 40 30 12
8 32 23 43 34 12 10 38 30 57 45 64 48 209 185 250 237 36 45 112 159 131 196
35 68 78 214 90 306 29 218 -35 513 -152 697 -16 25 -29 48 -29 51 0 10 -118
177 -175 248 -74 94 -170 200 -290 324 -55 57 -101 107 -103 111 -2 5 -41 44
-88 86 -83 76 -88 78 -140 80 l-54 2 189 -193z m-344 -1844 c5 7 11 8 19 1 8
-7 12 -39 11 -91 -1 -45 3 -84 7 -86 4 -3 8 -10 8 -16 0 -6 -8 -4 -18 5 -15
14 -18 31 -17 102 1 47 -1 83 -4 80 -8 -9 -8 -166 1 -171 4 -3 8 -10 8 -16 0
-6 -8 -4 -18 5 -15 13 -18 31 -17 97 1 45 -2 83 -5 85 -8 5 -6 -162 3 -171 16
-16 6 -26 -11 -11 -15 13 -18 31 -17 94 1 86 9 111 30 93 10 -8 15 -8 20 0z
m60 -85 c-1 -47 2 -88 7 -91 4 -3 8 -10 8 -16 0 -6 -8 -4 -18 5 -15 13 -17 31
-16 104 2 100 1 96 12 89 5 -3 8 -44 7 -91z m60 85 c5 7 11 8 19 1 8 -7 12
-39 11 -91 -1 -45 3 -84 7 -86 4 -3 8 -10 8 -16 0 -6 -8 -4 -18 5 -15 14 -18
31 -17 102 1 47 -1 83 -4 80 -8 -9 -8 -166 1 -171 4 -3 8 -10 8 -16 0 -6 -8
-4 -18 5 -15 13 -18 31 -17 97 1 45 -2 83 -5 85 -8 5 -6 -162 3 -171 16 -16 6
-26 -11 -11 -15 13 -18 31 -17 94 1 86 9 111 30 93 10 -8 15 -8 20 0z m50 0
c-3 -5 -1 -10 4 -10 6 0 11 6 11 13 0 9 2 9 9 -1 7 -11 7 -57 1 -72 -1 -3 -6
9 -10 25 -5 20 -7 3 -5 -47 0 -43 4 -81 8 -84 16 -16 6 -26 -11 -11 -15 13
-17 31 -16 104 2 96 2 93 10 93 3 0 2 -4 -1 -10z m725 -1 c0 -4 -8 -13 -17
-20 -9 -8 -14 -9 -10 -3 3 6 0 11 -8 11 -10 0 -11 -5 -5 -17 7 -13 3 -23 -14
-39 -12 -12 -26 -18 -29 -14 -4 3 -7 -4 -7 -16 0 -12 -4 -20 -9 -17 -11 7 -9
25 4 46 14 23 13 57 -1 57 -9 0 -10 -4 -5 -11 13 -15 12 -28 -3 -46 -7 -8 -12
-27 -11 -42 1 -18 -7 -35 -22 -49 -12 -13 -24 -19 -24 -16 -6 33 -3 95 5 106
15 20 15 58 0 58 -7 0 -10 -5 -6 -11 11 -19 11 -35 -2 -46 -9 -6 -12 -31 -10
-69 2 -51 -1 -62 -19 -78 l-22 -18 18 22 c12 13 16 27 11 35 -13 21 -11 98 2
109 12 10 11 45 -1 58 -4 3 -4 -6 -1 -21 2 -15 -1 -31 -8 -37 -13 -11 -15 -88
-3 -107 11 -18 -18 -24 -40 -9 -14 10 -19 25 -18 58 0 24 5 51 11 58 12 14 11
45 -1 57 -3 4 -4 -5 -1 -20 2 -15 -1 -31 -8 -37 -13 -11 -16 -95 -3 -107 16
-16 6 -26 -11 -11 -20 18 -24 90 -7 117 14 23 13 57 -1 57 -7 0 -10 -5 -6 -11
10 -16 9 -29 -2 -45 -13 -16 -16 -100 -4 -107 4 -3 8 -10 8 -16 0 -6 -8 -4
-18 5 -20 19 -24 95 -6 118 12 14 11 45 -1 57 -3 4 -4 -5 -1 -20 2 -15 -1 -31
-8 -37 -13 -11 -16 -95 -3 -107 16 -16 6 -26 -11 -11 -20 18 -24 90 -7 117 14
23 13 57 -1 57 -7 0 -10 -5 -6 -11 10 -16 9 -29 -2 -45 -13 -16 -16 -100 -4
-107 4 -3 8 -10 8 -16 0 -6 -8 -4 -18 5 -20 19 -24 95 -6 118 12 14 11 45 -1
57 -3 4 -4 -5 -1 -20 2 -15 -1 -31 -8 -37 -13 -11 -16 -95 -3 -107 16 -16 6
-26 -11 -11 -20 18 -24 90 -7 117 14 23 13 57 -1 57 -11 0 -11 -3 -1 -15 15
-18 15 -15 -3 -37 -15 -19 -22 -103 -8 -111 4 -3 8 -10 8 -16 0 -6 -8 -4 -18
5 -20 19 -24 95 -6 118 12 14 11 45 -1 57 -3 4 -4 -5 -1 -20 2 -15 -1 -31 -8
-37 -13 -11 -16 -95 -3 -107 16 -16 6 -26 -11 -11 -20 18 -24 90 -7 117 14 23
13 57 -1 57 -9 0 -10 -4 -5 -11 12 -15 12 -28 -2 -45 -13 -16 -17 -100 -5
-107 4 -3 8 -10 8 -16 0 -6 -8 -4 -18 5 -20 19 -24 95 -6 118 12 14 11 45 -1
57 -3 4 -4 -5 -1 -20 2 -15 -1 -31 -8 -37 -13 -11 -16 -95 -3 -107 16 -16 6
-26 -11 -11 -20 18 -24 90 -7 117 14 23 13 57 -1 57 -8 0 -10 -5 -6 -11 10
-14 9 -27 -3 -46 -12 -18 -14 -99 -3 -106 4 -3 8 -10 8 -16 0 -6 -8 -4 -18 5
-20 19 -24 95 -6 118 12 14 11 45 -1 57 -3 4 -4 -5 -1 -20 2 -15 -1 -31 -8
-37 -13 -11 -16 -95 -3 -107 16 -16 6 -26 -11 -11 -20 18 -24 90 -7 117 14 23
13 57 -1 57 -7 0 -10 -5 -6 -11 10 -16 9 -29 -2 -45 -13 -16 -16 -100 -4 -107
4 -3 8 -10 8 -16 0 -6 -8 -4 -18 5 -20 19 -24 95 -6 118 12 14 11 45 -1 57 -3
4 -4 -5 -1 -20 2 -15 -1 -31 -8 -37 -13 -11 -16 -95 -3 -107 16 -16 6 -26 -11
-11 -20 18 -24 90 -7 117 14 23 13 57 -1 57 -8 0 -10 -5 -6 -11 10 -14 9 -27
-3 -46 -12 -18 -14 -99 -3 -106 4 -3 8 -10 8 -16 0 -6 -8 -4 -18 5 -20 19 -24
95 -6 118 12 14 11 45 -1 57 -3 4 -4 -5 -1 -20 2 -15 -1 -31 -8 -37 -13 -11
-16 -95 -3 -107 16 -16 6 -26 -11 -11 -20 19 -24 95 -6 118 6 8 10 28 9 44
l-3 30 344 0 c189 0 344 -3 344 -6z m-955 -85 c-1 -47 2 -87 7 -90 4 -3 8 -10
8 -16 0 -6 -8 -4 -18 5 -14 13 -18 31 -17 89 0 62 7 98 19 98 1 0 2 -39 1 -86z
m-57 -34 c-3 -28 -1 -53 4 -56 4 -3 8 -10 8 -16 0 -6 -9 -3 -20 7 -11 10 -17
21 -15 25 3 4 -3 14 -13 21 -15 13 -16 12 -3 -3 7 -10 10 -18 5 -18 -4 0 -3
-5 4 -12 20 -20 13 -32 -8 -13 -11 10 -17 21 -15 26 3 4 1 10 -4 13 -11 7 -9
-13 3 -32 13 -22 1 -24 -18 -3 -17 19 -17 21 8 44 14 13 26 29 26 36 0 6 4 11
9 11 6 0 8 -9 6 -20 -2 -11 0 -22 4 -24 4 -3 7 7 6 22 -2 28 2 42 12 42 3 0 3
-23 1 -50z m762 -144 c0 -2 -8 -10 -17 -17 -16 -13 -17 -12 -4 4 13 16 21 21
21 13z m-150 -120 c0 -2 -8 -10 -17 -17 -16 -13 -17 -12 -4 4 13 16 21 21 21
13z"/>
<path d="M3428 1766 c10 -14 9 -27 -3 -46 -15 -24 -13 -99 4 -113 12 -10 13
-9 6 3 -13 21 -13 92 -1 109 15 20 15 58 0 58 -8 0 -10 -5 -6 -11z"/>
<path d="M3524 1759 c2 -13 -1 -30 -7 -38 -11 -13 -20 -97 -9 -86 3 3 6 20 7
39 0 18 5 40 11 47 11 14 11 45 0 57 -4 3 -5 -5 -2 -19z"/>
<path d="M3584 1759 c2 -13 -2 -31 -8 -39 -9 -13 -9 -13 6 -2 9 7 15 22 13 34
-6 30 -16 37 -11 7z"/>
<path d="M374 3605 c3 -11 1 -27 -4 -35 -8 -12 -10 -9 -10 13 0 31 -5 33 -26
13 -20 -20 -19 -43 1 -26 12 10 15 10 16 -1 1 -8 0 -18 -1 -24 -1 -5 -3 -14
-4 -20 -1 -5 -6 -17 -11 -25 -10 -16 -10 -88 -1 -98 3 -3 6 3 7 14 0 18 1 18
9 -1 l9 -20 1 20 1 20 9 -20 9 -20 1 20 1 20 10 -20 9 -20 -3 20 c-2 14 -10
20 -27 20 -20 0 -25 5 -25 25 0 15 6 25 14 25 9 0 16 11 17 25 2 14 5 39 8 56
2 16 0 37 -5 45 -8 11 -9 10 -5 -6z m-2 -62 c-5 -10 -8 -26 -6 -36 1 -11 0
-16 -3 -13 -4 3 -13 0 -22 -6 -10 -8 -9 -4 3 10 11 12 16 22 12 22 -4 0 -2 9
4 20 6 11 13 20 16 20 2 0 1 -8 -4 -17z"/>
<path d="M162 3484 c-7 -8 -11 -22 -9 -32 4 -14 5 -13 6 3 1 17 3 18 11 5 6
-9 10 -11 10 -3 0 7 7 10 18 7 13 -5 14 -4 3 4 -7 5 -16 14 -20 20 -4 6 -11 4
-19 -4z"/>
<path d="M98 3460 c2 -16 6 -30 8 -30 2 0 4 14 4 30 0 17 -4 30 -8 30 -5 0 -7
-13 -4 -30z"/>
<path d="M58 3440 c2 -18 0 -31 -7 -31 -6 -1 -15 -2 -21 -3 -5 0 -10 -4 -10
-8 0 -5 0 -10 0 -13 0 -3 10 0 23 7 12 7 28 11 35 10 19 -4 14 33 -6 51 -18
16 -18 15 -14 -13z m19 -22 c-3 -8 -6 -5 -6 6 -1 11 2 17 5 13 3 -3 4 -12 1
-19z"/>
<path d="M230 3388 c-10 -21 -10 -22 3 -5 11 14 16 15 20 5 4 -9 6 -9 6 -1 2
23 -18 23 -29 1z"/>
<path d="M161 3381 c-32 -9 -40 -31 -11 -31 28 0 62 19 55 31 -7 10 -9 10 -44
0z"/>
<path d="M2375 3150 c-32 -132 -173 -381 -297 -526 -24 -28 -59 -70 -78 -94
-19 -24 -69 -82 -110 -130 -41 -47 -97 -113 -123 -147 -27 -34 -54 -63 -60
-65 -7 -2 -199 -4 -427 -4 l-415 1 -7 45 c-3 25 -4 2 -2 -50 6 -101 27 -213
51 -270 32 -73 58 -125 66 -128 4 -2 5 -8 2 -12 -10 -17 13 -19 26 -3 8 9 9
14 3 10 -7 -4 -16 -1 -22 6 -8 10 42 12 244 12 256 0 278 -3 239 -35 -11 -9
-13 -23 -9 -50 3 -21 2 -40 -4 -44 -5 -3 -8 7 -7 24 1 16 -1 28 -5 25 -6 -4
-6 -60 0 -60 2 0 3 -14 4 -31 2 -22 -2 -30 -10 -27 -13 5 -13 20 0 43 7 12 7
13 -5 2 -8 -7 -15 -17 -15 -22 -1 -6 -2 -15 -3 -21 0 -5 -5 -8 -10 -5 -11 7
-9 29 5 47 6 8 10 26 9 42 -1 15 4 32 11 38 8 6 12 15 9 19 -3 5 -1 11 5 15 5
3 10 12 10 18 -1 11 -24 -21 -25 -33 0 -3 -5 -12 -10 -20 -5 -8 -10 -26 -10
-40 0 -14 -5 -32 -10 -40 -10 -15 -11 -20 -14 -41 0 -5 -5 -8 -10 -5 -11 7 -9
25 4 46 5 8 10 27 10 41 0 14 6 33 14 42 7 10 10 17 6 17 -5 0 -1 8 8 18 15
16 15 19 2 19 -8 0 -13 -3 -10 -5 3 -3 0 -11 -6 -19 -6 -7 -8 -13 -4 -13 4 0
1 -7 -6 -17 -8 -9 -14 -28 -14 -42 0 -14 -5 -33 -10 -41 -10 -15 -11 -20 -14
-41 0 -5 -5 -8 -10 -5 -11 7 -9 29 5 47 6 8 10 26 9 42 -1 15 4 32 11 38 8 6
12 15 9 19 -3 5 -1 11 5 15 5 3 10 12 10 18 -1 11 -24 -21 -25 -33 0 -3 -5
-12 -10 -20 -5 -8 -10 -27 -10 -41 0 -14 -7 -34 -15 -44 -8 -10 -14 -20 -12
-22 6 -9 1 -24 -7 -19 -11 7 -9 25 4 46 5 8 10 27 10 41 0 14 6 33 14 42 7 10
10 17 6 17 -5 0 -1 8 8 18 15 16 15 19 2 19 -8 0 -13 -3 -10 -5 3 -3 0 -11 -6
-19 -6 -7 -8 -13 -4 -13 4 0 1 -7 -6 -17 -8 -9 -14 -28 -14 -43 0 -15 -7 -35
-15 -45 -8 -10 -14 -20 -12 -22 6 -9 1 -24 -7 -19 -11 7 -9 29 5 47 6 8 10 26
9 42 -1 15 4 32 11 38 8 6 12 15 9 19 -3 5 -1 11 5 15 5 3 10 12 10 18 -1 11
-24 -21 -25 -33 0 -3 -5 -12 -10 -20 -5 -8 -10 -27 -10 -41 0 -14 -5 -32 -12
-40 -11 -14 -13 -19 -13 -40 0 -5 -4 -8 -9 -5 -11 7 -9 25 4 46 5 8 10 27 10
41 0 14 6 33 14 42 7 10 10 17 6 17 -5 0 -1 8 8 18 15 16 15 19 2 19 -8 0 -13
-3 -10 -5 3 -3 0 -11 -6 -19 -6 -7 -8 -13 -4 -13 4 0 1 -7 -6 -17 -8 -9 -14
-28 -14 -43 0 -15 -5 -33 -12 -41 -11 -14 -13 -19 -13 -40 0 -5 -4 -8 -9 -5
-11 7 -9 29 5 47 6 8 10 26 9 42 -1 15 4 32 11 38 8 6 12 15 9 19 -3 5 -1 11
5 15 5 3 10 12 10 18 -1 12 -20 -16 -21 -30 0 -5 -6 -14 -12 -22 -7 -8 -12
-26 -12 -41 0 -15 -7 -35 -15 -45 -8 -10 -14 -20 -12 -22 6 -9 1 -24 -7 -19
-11 7 -9 25 4 46 5 8 10 27 10 41 0 14 6 33 14 42 7 10 10 17 6 17 -5 0 -1 8
8 18 15 16 15 19 2 19 -8 0 -13 -3 -10 -5 3 -3 0 -11 -6 -19 -6 -7 -8 -13 -4
-13 4 0 1 -7 -6 -17 -8 -9 -14 -28 -14 -43 0 -15 -7 -35 -15 -45 -8 -10 -14
-20 -12 -22 6 -9 1 -24 -7 -19 -11 7 -9 29 5 47 6 8 10 26 9 42 -1 15 4 32 11
38 8 6 12 15 9 19 -3 5 -1 11 5 15 5 3 10 12 10 18 0 7 -5 4 -11 -5 -5 -10 -8
-19 -7 -21 2 -2 -4 -12 -12 -22 -8 -10 -15 -30 -15 -45 0 -15 -7 -35 -15 -45
-8 -10 -14 -20 -12 -22 6 -9 1 -24 -7 -19 -11 7 -9 25 4 46 5 8 10 27 10 41 0
14 6 33 14 42 7 10 10 17 6 17 -5 0 -1 8 8 18 15 16 15 19 2 19 -8 0 -13 -3
-10 -5 3 -3 0 -11 -6 -19 -6 -7 -8 -13 -4 -13 4 0 1 -7 -6 -17 -8 -9 -14 -28
-14 -43 0 -15 -5 -33 -12 -41 -11 -14 -13 -19 -13 -40 0 -5 -4 -8 -9 -5 -11 7
-9 29 5 47 6 8 10 26 9 42 -1 15 4 32 11 38 8 6 12 15 9 19 -3 5 -1 11 5 15 5
3 10 12 10 18 0 7 -5 4 -11 -5 -5 -10 -8 -19 -7 -21 2 -2 -4 -12 -12 -22 -8
-10 -15 -30 -15 -45 0 -16 -8 -37 -18 -47 -17 -19 -14 -23 92 -131 l108 -111
104 -3 c57 -2 102 -5 100 -8 -2 -3 2 -16 9 -30 8 -14 14 -27 15 -30 1 -17 39
-90 47 -90 5 0 7 -4 4 -9 -3 -5 7 -22 22 -38 31 -32 164 -123 180 -123 5 0 15
-7 22 -15 7 -9 15 -14 17 -11 2 2 -19 34 -47 71 -70 93 -146 246 -177 360 -14
50 -12 241 3 285 38 115 148 317 209 386 6 6 17 22 25 34 8 12 20 28 25 34 6
6 22 27 37 46 15 19 37 47 50 61 13 15 39 46 58 70 19 23 42 50 50 58 26 28
124 146 150 181 14 18 41 54 61 79 84 109 186 291 222 397 12 35 11 42 -2 54
-9 7 -30 26 -47 42 l-31 29 -18 -71z m-918 -1622 c-3 -8 -6 -5 -6 6 -1 11 2
17 5 13 3 -3 4 -12 1 -19z"/>
<path d="M80 3056 c0 -2 7 -19 15 -37 15 -31 16 -32 10 -6 -4 19 -2 26 5 22 5
-3 10 1 10 9 0 9 -9 16 -20 16 -11 0 -20 -2 -20 -4z"/>
<path d="M10 3021 c0 -6 4 -13 10 -16 6 -3 7 1 4 9 -7 18 -14 21 -14 7z"/>
<path d="M81 2951 c-10 -7 -8 -12 10 -25 18 -12 25 -13 31 -3 9 15 11 33 1 24
-3 -4 -11 -3 -17 3 -7 5 -18 5 -25 1z"/>
<path d="M83 2865 c0 -8 4 -12 9 -9 5 3 6 10 3 15 -9 13 -12 11 -12 -6z"/>
<path d="M81 2704 c0 -11 3 -14 6 -6 3 7 2 16 -1 19 -3 4 -6 -2 -5 -13z"/>
<path d="M254 2679 c-3 -6 -1 -16 5 -22 9 -9 10 -7 5 7 -6 15 -4 17 6 11 9 -5
11 -4 6 3 -9 15 -13 15 -22 1z"/>
<path d="M213 2673 c-17 -6 -16 -23 1 -23 8 0 16 7 20 15 6 15 1 17 -21 8z"/>
<path d="M2558 2642 c-24 -11 -49 -34 -67 -63 -16 -25 -36 -55 -44 -65 -9 -10
-48 -60 -87 -111 -47 -60 -80 -93 -98 -98 -29 -7 -34 -12 -139 -143 -71 -87
-85 -121 -51 -122 9 -1 8 -4 -3 -13 -8 -7 -30 -34 -49 -62 -19 -27 -42 -59
-52 -69 -10 -11 -18 -24 -18 -30 0 -9 -45 -108 -57 -125 -1 -2 -9 1 -16 7 -21
18 -29 1 -12 -25 9 -13 12 -23 7 -23 -5 0 -8 -17 -7 -37 1 -21 -2 -43 -7 -50
-6 -7 -6 -18 -2 -25 5 -7 9 -24 10 -36 2 -34 14 -38 106 -35 59 1 89 -2 105
-12 29 -20 33 -19 33 5 0 18 10 25 32 21 5 0 7 3 5 8 -1 5 10 20 26 34 16 15
27 37 27 52 0 19 5 25 23 26 16 1 18 2 5 6 -25 6 -22 33 3 33 16 0 19 4 14 20
-6 20 6 26 43 21 6 -1 12 7 12 19 0 11 7 23 16 27 20 8 4 19 -48 33 -58 16
-45 28 28 29 72 0 94 12 121 64 10 21 19 26 33 22 21 -7 66 30 50 40 -18 11
-10 29 28 70 48 52 163 235 147 235 -3 0 1 15 9 34 8 19 13 59 13 90 -2 41 1
55 10 51 18 -6 17 49 -1 64 -8 7 -18 26 -21 42 -6 25 -72 110 -86 109 -2 0
-21 -8 -41 -18z m-518 -920 c0 -4 -18 -8 -41 -9 -26 -1 -46 -8 -54 -19 -14
-19 -49 -12 -43 9 6 17 138 36 138 19z"/>
<path d="M227 2554 c-3 -3 -3 -17 -1 -31 3 -14 1 -22 -5 -19 -5 4 -12 3 -15
-2 -2 -4 4 -9 15 -9 11 -1 19 5 20 15 0 14 2 13 10 -3 l9 -20 -2 20 c-2 11 1
27 6 35 5 8 6 12 1 8 -4 -4 -13 -3 -20 2 -7 5 -14 7 -18 4z m18 -13 c3 -5 2
-12 -3 -15 -5 -3 -9 1 -9 9 0 17 3 19 12 6z"/>
<path d="M146 2488 c-12 -38 -13 -59 -5 -64 6 -3 5 -12 -3 -22 -10 -14 -10
-15 2 -4 8 7 14 32 15 57 0 46 -3 55 -9 33z"/>
<path d="M531 2464 c0 -11 3 -14 6 -6 3 7 2 16 -1 19 -3 4 -6 -2 -5 -13z"/>
<path d="M140 2261 c0 -6 4 -12 8 -15 5 -3 9 1 9 9 0 8 -4 15 -9 15 -4 0 -8
-4 -8 -9z"/>
<path d="M173 2185 c0 -8 4 -12 9 -9 5 3 6 10 3 15 -9 13 -12 11 -12 -6z"/>
<path d="M0 2140 c0 -6 7 -10 15 -10 8 0 15 2 15 4 0 2 -7 6 -15 10 -8 3 -15
1 -15 -4z"/>
<path d="M167 2107 c-3 -8 -1 -20 4 -28 5 -8 9 -9 9 -4 0 6 4 3 10 -5 6 -10 9
-5 8 18 -1 29 -2 30 -15 14 -12 -16 -13 -16 -7 1 7 20 -1 24 -9 4z"/>
<path d="M75 2089 c-4 -12 -10 -18 -14 -13 -9 13 -34 17 -26 4 3 -5 -3 -10
-14 -10 -12 0 -21 -4 -21 -9 0 -6 10 -7 22 -4 34 8 69 4 84 -8 7 -6 18 -8 24
-4 18 11 11 23 -19 30 -20 4 -28 11 -24 21 3 8 3 14 0 14 -3 0 -9 -10 -12 -21z"/>
<path d="M3 1898 c4 -13 34 -18 51 -10 11 6 -15 22 -37 22 -11 0 -17 -5 -14
-12z"/>
<path d="M22 1830 c-25 -11 -31 -50 -6 -50 8 0 12 -4 9 -10 -4 -6 8 -10 30
-10 22 0 34 -4 30 -10 -3 -5 -16 -10 -28 -10 -23 -1 -60 -23 -52 -32 8 -8 65
4 65 13 0 5 11 9 23 9 13 0 27 3 31 7 4 4 17 8 29 8 13 0 22 6 22 15 0 8 4 20
8 27 4 7 -4 20 -22 32 -31 22 -97 27 -139 11z"/>
<path d="M1006 1752 c-11 -14 -13 -22 -6 -17 9 6 12 4 8 -6 -3 -8 1 -24 9 -34
12 -15 14 -16 10 -3 -3 9 1 22 9 29 8 6 12 14 9 17 -3 3 2 13 10 22 13 14 13
17 1 17 -8 0 -15 -3 -14 -6 0 -3 -1 -9 -2 -13 -3 -10 -7 -25 -9 -35 -1 -5 -5
-1 -11 7 -5 9 -5 19 2 27 6 8 9 15 7 17 -2 2 -13 -8 -23 -22z"/>
<path d="M1075 1763 c-5 -10 -9 -20 -9 -23 -1 -3 -6 -12 -11 -20 -13 -21 -15
-63 -2 -78 15 -19 34 3 32 35 -1 16 5 36 13 46 8 9 11 17 7 17 -4 0 -1 8 8 18
14 15 15 19 2 19 -8 0 -12 -4 -9 -8 2 -4 0 -10 -6 -14 -6 -4 -8 -10 -5 -15 3
-4 -1 -13 -9 -19 -7 -6 -12 -25 -11 -41 2 -27 -13 -56 -16 -31 -5 44 -3 58 9
74 8 9 12 17 7 17 -4 0 -2 7 5 15 7 9 11 18 8 21 -3 3 -9 -3 -13 -13z"/>
<path d="M2275 1700 c3 -5 8 -10 11 -10 2 0 4 5 4 10 0 6 -5 10 -11 10 -5 0
-7 -4 -4 -10z"/>
<path d="M110 1680 c0 -5 5 -10 10 -10 6 0 10 5 10 10 0 6 -4 10 -10 10 -5 0
-10 -4 -10 -10z"/>
<path d="M0 1610 c0 -5 7 -7 15 -4 19 8 19 14 0 14 -8 0 -15 -4 -15 -10z"/>
<path d="M93 1613 c-44 -4 -56 -19 -27 -30 9 -3 25 -1 35 5 10 7 28 12 39 12
11 0 20 5 20 10 0 6 -6 9 -12 8 -7 -1 -32 -3 -55 -5z"/>
<path d="M0 1563 c0 -29 12 -24 17 7 2 11 -2 20 -7 20 -6 0 -10 -12 -10 -27z"/>
<path d="M156 1581 c-4 -5 3 -7 14 -4 23 6 26 13 6 13 -8 0 -17 -4 -20 -9z"/>
<path d="M676 1555 c-4 -11 1 -15 19 -15 13 0 27 -5 31 -11 4 -8 9 -7 15 2 4
8 1 18 -9 26 -23 17 -49 16 -56 -2z"/>
<path d="M244 1551 c3 -5 14 -11 25 -14 14 -3 18 -1 14 9 -3 8 -14 14 -25 14
-10 0 -17 -4 -14 -9z"/>
<path d="M620 1550 c0 -5 5 -10 11 -10 5 0 7 5 4 10 -3 6 -8 10 -11 10 -2 0
-4 -4 -4 -10z"/>
<path d="M145 1530 c-3 -5 -1 -10 4 -10 6 0 11 5 11 10 0 6 -2 10 -4 10 -3 0
-8 -4 -11 -10z"/>
<path d="M662 1454 c-7 -8 -10 -19 -6 -26 5 -7 10 -3 16 12 10 28 7 33 -10 14z"/>
<path d="M610 1450 c0 -5 5 -10 10 -10 6 0 10 5 10 10 0 6 -4 10 -10 10 -5 0
-10 -4 -10 -10z"/>
<path d="M757 1429 c-14 -8 -16 -14 -6 -25 9 -11 8 -14 -5 -14 -20 0 -21 -16
-1 -24 14 -5 16 -1 19 37 1 6 8 17 16 24 18 15 2 16 -23 2z"/>
<path d="M4776 1432 c-3 -6 -2 -13 4 -17 6 -4 8 -10 6 -14 -3 -4 -1 -13 5 -21
7 -12 9 -9 9 10 0 31 -15 56 -24 42z"/>
<path d="M570 1380 c0 -5 7 -7 15 -4 8 4 15 8 15 10 0 2 -7 4 -15 4 -8 0 -15
-4 -15 -10z"/>
<path d="M360 1369 c0 -5 5 -7 10 -4 6 3 10 8 10 11 0 2 -4 4 -10 4 -5 0 -10
-5 -10 -11z"/>
<path d="M4780 1349 c0 -5 5 -7 10 -4 6 3 10 8 10 11 0 2 -4 4 -10 4 -5 0 -10
-5 -10 -11z"/>
<path d="M80 1340 c0 -13 28 -25 38 -16 3 4 0 11 -8 16 -20 13 -30 12 -30 0z"/>
<path d="M755 1340 c3 -5 10 -10 16 -10 5 0 9 5 9 10 0 6 -7 10 -16 10 -8 0
-12 -4 -9 -10z"/>
<path d="M3542 1258 c-16 -16 -15 -35 3 -42 11 -4 15 2 15 24 0 34 -1 35 -18
18z"/>
<path d="M4635 1090 c-3 -5 -1 -10 4 -10 6 0 11 5 11 10 0 6 -2 10 -4 10 -3 0
-8 -4 -11 -10z"/>
<path d="M4622 1052 c-10 -19 -5 -42 9 -42 6 0 8 4 4 9 -3 5 -1 12 5 16 5 3
10 2 10 -3 0 -5 16 -22 35 -37 27 -20 39 -24 49 -16 7 6 16 8 19 4 4 -3 7 -1
7 5 0 16 -30 15 -30 0 -1 -7 -6 -3 -13 10 -7 12 -16 20 -19 16 -4 -3 -14 6
-23 19 -21 33 -43 40 -53 19z"/>
<path d="M4770 976 c0 -9 7 -16 16 -16 17 0 14 22 -4 28 -7 2 -12 -3 -12 -12z"/>
<path d="M1503 834 c10 -56 17 -78 27 -88 5 -5 10 -30 10 -55 0 -58 9 -93 23
-88 18 6 59 139 52 172 -3 17 -6 35 -7 42 -1 7 -5 10 -10 7 -5 -3 -5 -11 -1
-17 7 -12 -27 12 -38 26 -3 5 -12 9 -20 10 -8 2 -20 6 -28 11 -11 7 -13 3 -8
-20z"/>
<path d="M1710 624 c0 -3 10 -20 23 -37 28 -39 43 -65 58 -97 6 -14 15 -33 20
-43 7 -13 4 -26 -9 -45 -22 -31 -19 -92 4 -92 8 0 14 4 14 10 0 19 58 39 131
44 41 4 94 9 119 12 25 3 54 7 66 8 33 4 47 16 35 30 -6 7 -7 17 -3 21 4 5 -1
5 -11 2 -11 -4 -17 -2 -16 6 3 28 -2 48 -11 42 -6 -4 -10 5 -10 20 0 14 -4 24
-9 21 -5 -4 -12 7 -16 24 -8 37 -37 54 -79 46 -31 -6 -151 -17 -193 -18 -12 0
-37 12 -56 26 -32 25 -57 33 -57 20z"/>
<path d="M1370 568 c0 -7 7 -26 16 -43 24 -45 31 -188 10 -219 -9 -14 -16 -29
-16 -34 0 -18 51 -19 83 -2 47 25 59 18 113 -63 13 -21 22 -42 19 -47 -3 -4 1
-15 9 -23 8 -8 17 -34 21 -58 11 -81 10 -79 81 -79 58 0 65 2 60 18 -11 35
-23 112 -18 116 3 3 0 12 -7 19 -6 8 -13 30 -15 48 -5 54 -18 93 -34 105 -10
7 -12 13 -4 18 26 16 -59 151 -116 182 -25 14 -37 15 -55 6 -43 -21 -74 -12
-103 29 -27 39 -44 50 -44 27z"/>
<path d="M1217 503 c-4 -3 -7 -14 -7 -24 0 -29 -39 -47 -95 -44 -27 1 -57 -1
-67 -6 -9 -5 -38 -9 -65 -10 -28 -1 -59 -10 -74 -20 -14 -10 -29 -16 -33 -12
-9 9 -8 -2 4 -32 9 -25 10 -25 35 -9 18 12 23 20 16 27 -6 6 -11 15 -11 21 0
21 21 -12 26 -40 3 -22 2 -25 -6 -14 -6 9 -10 10 -10 3 0 -6 4 -15 10 -18 15
-9 5 -51 -11 -47 -8 2 -10 0 -6 -4 13 -13 37 -13 37 1 0 7 6 18 14 24 12 10
17 8 26 -8 9 -17 8 -20 -5 -15 -8 4 -15 2 -15 -4 0 -6 5 -12 11 -14 7 -2 4
-10 -7 -18 -14 -12 -16 -12 -9 -1 6 11 5 12 -6 5 -19 -12 -39 -14 -39 -4 0 5
-8 7 -17 5 -10 -1 -17 -8 -15 -14 4 -19 -8 -12 -16 8 -7 19 -8 18 -19 -5 -10
-22 -10 -24 3 -14 8 8 14 8 14 2 0 -6 22 -8 60 -5 46 4 60 3 60 -7 0 -9 8 -6
23 8 28 26 37 28 37 6 0 -11 5 -14 16 -10 9 4 23 1 30 -5 7 -6 18 -8 24 -4 5
3 10 -1 10 -9 0 -9 4 -16 9 -16 16 0 71 -96 71 -125 0 -23 -3 -26 -12 -17 -18
18 -30 14 -19 -7 6 -10 7 -21 4 -25 -3 -3 35 -6 85 -6 105 0 107 4 40 75 -21
21 -38 44 -38 51 0 6 -12 14 -27 17 -24 5 -28 10 -28 39 0 26 4 34 21 36 16 2
23 12 27 39 4 20 4 41 0 46 -3 5 -7 37 -9 71 -2 33 -5 72 -7 87 -5 41 -23 60
-40 42z m-213 -117 c-5 -15 -2 -18 15 -13 19 5 20 4 6 -16 -19 -27 -19 -38 -1
-31 8 3 17 -1 22 -8 4 -7 4 -10 -1 -6 -4 4 -16 3 -26 -3 -15 -8 -19 -6 -19 6
0 9 -4 13 -10 10 -5 -3 -10 1 -10 9 0 10 6 13 15 10 8 -4 15 -1 15 6 0 6 -4 9
-8 6 -8 -4 -29 14 -44 39 -3 6 7 10 23 10 24 0 28 -3 23 -19z m76 4 c0 -5 -5
-10 -11 -10 -5 0 -7 5 -4 10 3 6 8 10 11 10 2 0 4 -4 4 -10z m-109 -48 c-4 -9
-6 -22 -4 -29 2 -6 0 -14 -5 -17 -5 -3 -7 5 -6 17 1 12 3 30 3 40 1 10 6 15
11 12 6 -4 7 -13 1 -23z m119 -42 c0 -5 -2 -10 -4 -10 -3 0 -8 5 -11 10 -3 6
-1 10 4 10 6 0 11 -4 11 -10z m-28 -24 c6 4 8 3 5 -4 -7 -11 -47 -5 -47 7 0
17 15 20 23 6 4 -8 13 -12 19 -9z m52 -32 c4 -10 1 -14 -6 -12 -15 5 -23 28
-10 28 5 0 13 -7 16 -16z m51 -22 c-3 -3 -11 0 -18 7 -9 10 -8 11 6 5 10 -3
15 -9 12 -12z"/>
<path d="M840 389 c0 -5 5 -7 10 -4 6 3 10 8 10 11 0 2 -4 4 -10 4 -5 0 -10
-5 -10 -11z"/>
<path d="M850 320 c9 -17 30 -20 30 -4 0 3 -4 2 -10 -1 -5 -3 -10 1 -10 9 0 9
-5 16 -10 16 -7 0 -7 -7 0 -20z"/>
<path d="M901 284 c0 -11 3 -14 6 -6 3 7 2 16 -1 19 -3 4 -6 -2 -5 -13z"/>
<path d="M805 269 c-4 -6 -4 -13 -1 -16 3 -4 6 -1 6 6 0 7 5 9 12 5 7 -4 8 -3
4 4 -9 15 -13 15 -21 1z"/>
<path d="M1998 195 c-4 -4 -5 -40 -2 -79 6 -64 4 -73 -15 -90 -12 -11 -21 -14
-21 -8 0 7 -5 12 -11 12 -8 0 -8 -5 1 -15 10 -12 36 -15 115 -15 l102 0 -5 25
c-2 14 0 25 7 25 6 0 17 13 25 29 15 27 14 30 -12 56 -14 15 -39 33 -55 41
-33 17 -119 29 -129 19z"/>
<path d="M2785 130 c3 -5 11 -10 16 -10 6 0 7 5 4 10 -3 6 -11 10 -16 10 -6 0
-7 -4 -4 -10z"/>
<path d="M2436 101 c-4 -7 16 -30 72 -80 31 -29 66 -27 80 4 18 39 15 58 -5
50 -36 -14 -56 -14 -69 0 -8 8 -21 12 -29 9 -8 -4 -15 -2 -15 4 0 13 -28 24
-34 13z"/>
<path d="M2775 100 c-3 -5 1 -10 9 -10 9 0 16 5 16 10 0 6 -4 10 -9 10 -6 0
-13 -4 -16 -10z"/>
<path d="M2235 89 c-11 -17 1 -21 15 -4 8 9 8 15 2 15 -6 0 -14 -5 -17 -11z"/>
<path d="M4544 88 c-4 -5 -3 -12 0 -15 3 -4 6 -1 6 5 0 6 7 9 15 6 8 -4 15 -2
15 3 0 12 -29 13 -36 1z"/>
<path d="M4480 71 c-12 -23 -13 -42 -2 -23 6 9 14 7 31 -9 17 -16 26 -18 34
-10 8 8 7 11 -6 11 -9 0 -17 5 -17 10 0 6 -7 10 -16 10 -10 0 -14 6 -10 15 8
22 -1 19 -14 -4z"/>
<path d="M2257 59 c-19 -22 -9 -25 18 -6 10 8 14 17 8 20 -5 3 -17 -3 -26 -14z"/>
<path d="M2320 24 c0 -14 -3 -14 -15 -4 -13 11 -14 10 -10 -2 3 -8 19 -15 35
-16 34 -1 36 3 16 24 -19 18 -26 18 -26 -2z"/>
<path d="M4567 23 c-14 -13 -6 -23 19 -23 23 0 24 2 10 15 -16 17 -20 18 -29
8z"/>
<path d="M2485 10 c-3 -5 1 -10 10 -10 9 0 13 5 10 10 -3 6 -8 10 -10 10 -2 0
-7 -4 -10 -10z"/>
</g>
</svg>
